<?xml version="1.0" encoding="UTF-8"?>
<svg xmlns="http://www.w3.org/2000/svg" xmlns:xlink="http://www.w3.org/1999/xlink" width="120px" height="32px" viewBox="0 0 120 32" version="1.1">
<g id="surface1">
<path style=" stroke:none;fill-rule:evenodd;fill:rgb(92.941176%,29.411765%,41.568627%);fill-opacity:1;" d="M 17.921875 12.488281 L 14.472656 6.523438 C 14.472656 6.523438 14.292969 6.203125 13.878906 6.203125 C 13.46875 6.203125 13.289062 6.523438 13.289062 6.523438 L 9.839844 12.488281 C 9.839844 12.488281 9.679688 12.789062 9.75 13.335938 C 9.839844 14.023438 10.34375 14.363281 10.34375 14.363281 L 12.535156 15.738281 C 12.535156 15.738281 13.058594 16.101562 13.859375 16.101562 C 13.859375 16.101562 13.878906 16.101562 13.878906 16.101562 C 13.878906 16.101562 13.902344 16.101562 13.902344 16.101562 C 14.703125 16.101562 15.226562 15.738281 15.226562 15.738281 L 17.417969 14.363281 C 17.417969 14.363281 17.921875 14.023438 18.011719 13.335938 C 18.101562 12.789062 17.921875 12.488281 17.921875 12.488281 Z M 17.921875 12.488281 "/>
<path style=" stroke:none;fill-rule:nonzero;fill:rgb(25.490196%,25.098039%,25.882353%);fill-opacity:1;" d="M 46.332031 9.175781 C 45.671875 8.648438 44.894531 8.238281 44.007812 7.960938 C 43.09375 7.6875 42.132812 7.550781 41.128906 7.550781 C 40.171875 7.550781 39.234375 7.6875 38.300781 7.960938 C 37.363281 8.238281 36.542969 8.625 35.8125 9.152344 C 35.082031 9.675781 34.464844 10.339844 34.011719 11.117188 C 33.53125 11.917969 33.28125 12.832031 33.210938 13.90625 L 32.960938 18.890625 C 32.914062 19.96875 33.074219 20.882812 33.4375 21.683594 C 33.804688 22.484375 34.351562 23.121094 35.015625 23.648438 C 35.699219 24.175781 36.476562 24.5625 37.363281 24.816406 C 38.253906 25.066406 39.191406 25.203125 40.171875 25.203125 C 41.128906 25.203125 42.066406 25.066406 42.980469 24.816406 C 43.890625 24.5625 44.714844 24.175781 45.464844 23.648438 C 46.195312 23.121094 46.8125 22.460938 47.269531 21.683594 C 47.75 20.882812 48 19.96875 48.070312 18.890625 L 48.320312 13.976562 C 48.363281 12.902344 48.226562 11.964844 47.886719 11.164062 C 47.496094 10.386719 46.996094 9.699219 46.332031 9.175781 Z M 43.847656 14.664062 L 43.664062 18.09375 C 43.640625 18.640625 43.527344 19.121094 43.320312 19.511719 C 43.117188 19.898438 42.863281 20.21875 42.546875 20.449219 C 42.226562 20.699219 41.882812 20.859375 41.519531 20.972656 C 41.152344 21.085938 40.789062 21.132812 40.421875 21.132812 C 40.011719 21.132812 39.625 21.085938 39.257812 20.972656 C 38.894531 20.859375 38.574219 20.699219 38.277344 20.449219 C 37.980469 20.195312 37.777344 19.898438 37.617188 19.511719 C 37.457031 19.121094 37.410156 18.664062 37.433594 18.09375 L 37.617188 14.664062 C 37.636719 14.113281 37.753906 13.632812 37.957031 13.265625 C 38.164062 12.902344 38.414062 12.582031 38.734375 12.328125 C 39.054688 12.078125 39.394531 11.917969 39.785156 11.804688 C 40.171875 11.691406 40.558594 11.644531 40.925781 11.644531 C 41.289062 11.644531 41.65625 11.691406 42.019531 11.804688 C 42.363281 11.917969 42.707031 12.078125 42.980469 12.328125 C 43.277344 12.582031 43.503906 12.878906 43.664062 13.265625 C 43.800781 13.632812 43.871094 14.089844 43.847656 14.664062 Z M 43.847656 14.664062 "/>
<path style=" stroke:none;fill-rule:nonzero;fill:rgb(25.490196%,25.098039%,25.882353%);fill-opacity:1;" d="M 99.898438 0.644531 C 99.234375 0.644531 98.644531 0.898438 98.117188 1.378906 C 97.617188 1.859375 97.34375 2.453125 97.296875 3.160156 C 97.25 3.847656 97.480469 4.441406 97.933594 4.921875 C 98.390625 5.402344 98.960938 5.628906 99.648438 5.628906 C 100.332031 5.628906 100.902344 5.402344 101.425781 4.921875 C 101.929688 4.441406 102.203125 3.871094 102.25 3.160156 C 102.292969 2.476562 102.066406 1.878906 101.609375 1.378906 C 101.128906 0.875 100.558594 0.644531 99.898438 0.644531 Z M 99.898438 0.644531 "/>
<path style=" stroke:none;fill-rule:nonzero;fill:rgb(25.490196%,25.098039%,25.882353%);fill-opacity:1;" d="M 28.648438 20.925781 C 28.488281 20.789062 28.371094 20.628906 28.328125 20.378906 C 28.28125 20.148438 28.257812 19.828125 28.28125 19.441406 L 29.238281 0.898438 C 29.238281 0.78125 29.21875 0.554688 29.035156 0.347656 C 28.828125 0.121094 28.464844 0.0742188 28.304688 0.0507812 L 24.882812 0.0507812 L 23.832031 20.289062 C 23.785156 21.042969 23.808594 21.703125 23.875 22.300781 C 23.945312 22.894531 24.128906 23.398438 24.449219 23.832031 C 24.765625 24.265625 25.222656 24.585938 25.816406 24.816406 C 26.410156 25.042969 27.230469 25.15625 28.28125 25.15625 C 28.601562 25.15625 28.941406 25.136719 29.285156 25.113281 C 29.628906 25.089844 30.015625 25.042969 30.402344 24.976562 L 30.539062 21.203125 C 30.0625 21.203125 29.652344 21.179688 29.355469 21.132812 C 29.058594 21.15625 28.804688 21.066406 28.648438 20.925781 Z M 28.648438 20.925781 "/>
<path style=" stroke:none;fill-rule:nonzero;fill:rgb(25.490196%,25.098039%,25.882353%);fill-opacity:1;" d="M 88.804688 7.574219 C 88.214844 7.574219 87.484375 7.6875 86.660156 7.894531 C 85.839844 8.101562 84.835938 8.535156 83.695312 9.175781 L 83.898438 5.515625 L 84.128906 1.011719 C 84.128906 1.011719 84.171875 0.667969 83.921875 0.394531 C 83.695312 0.140625 83.238281 0.0976562 83.125 0.0976562 L 79.769531 0.0976562 L 78.511719 24.21875 C 78.511719 24.335938 78.558594 24.5625 78.71875 24.746094 C 78.992188 25.042969 79.539062 25.042969 79.539062 25.042969 L 82.53125 25.042969 L 82.941406 23.648438 C 83.855469 24.175781 84.722656 24.5625 85.519531 24.816406 C 86.320312 25.066406 87.003906 25.179688 87.621094 25.179688 C 89.421875 25.179688 90.882812 24.65625 91.980469 23.625 C 93.074219 22.597656 93.691406 21.019531 93.804688 18.914062 L 94.078125 13.839844 C 94.167969 11.964844 93.804688 10.453125 93.003906 9.3125 C 92.160156 8.144531 90.769531 7.574219 88.804688 7.574219 Z M 89.605469 14.410156 L 89.398438 18.457031 C 89.355469 19.394531 89.101562 20.058594 88.667969 20.46875 C 88.234375 20.882812 87.710938 21.085938 87.117188 21.085938 C 86.84375 21.085938 86.523438 21.042969 86.160156 20.972656 C 85.792969 20.882812 85.453125 20.789062 85.085938 20.675781 C 84.722656 20.5625 84.355469 20.425781 84.015625 20.265625 C 83.671875 20.105469 83.375 19.945312 83.144531 19.785156 L 83.488281 13.40625 C 84.21875 12.96875 84.972656 12.582031 85.679688 12.261719 C 86.410156 11.941406 87.050781 11.78125 87.597656 11.78125 C 88.191406 11.78125 88.691406 11.964844 89.101562 12.351562 C 89.492188 12.742188 89.671875 13.425781 89.605469 14.410156 Z M 89.605469 14.410156 "/>
<path style=" stroke:none;fill-rule:nonzero;fill:rgb(25.490196%,25.098039%,25.882353%);fill-opacity:1;" d="M 100.855469 7.824219 L 97.5 7.824219 L 97.113281 15.371094 L 96.65625 24.105469 C 96.65625 24.105469 96.65625 24.105469 96.65625 24.128906 L 96.65625 24.152344 C 96.65625 24.242188 96.65625 24.515625 96.863281 24.722656 C 97.066406 24.953125 97.480469 24.996094 97.617188 25.019531 L 101.015625 25.019531 L 101.859375 8.738281 C 101.859375 8.738281 101.90625 8.398438 101.65625 8.121094 C 101.425781 7.824219 100.855469 7.824219 100.855469 7.824219 Z M 100.855469 7.824219 "/>
<path style=" stroke:none;fill-rule:nonzero;fill:rgb(25.490196%,25.098039%,25.882353%);fill-opacity:1;" d="M 119.800781 8.121094 C 119.523438 7.824219 118.976562 7.824219 118.976562 7.824219 L 115.988281 7.824219 L 115.578125 9.21875 C 114.640625 8.648438 113.773438 8.214844 112.976562 7.960938 C 112.199219 7.710938 111.492188 7.574219 110.898438 7.574219 C 109.09375 7.574219 107.636719 8.101562 106.492188 9.152344 C 105.375 10.203125 104.757812 11.78125 104.644531 13.886719 L 104.371094 18.9375 C 104.28125 20.8125 104.667969 22.324219 105.535156 23.464844 C 106.402344 24.609375 107.792969 25.179688 109.710938 25.179688 C 110.304688 25.179688 111.035156 25.089844 111.855469 24.882812 C 112.703125 24.675781 113.660156 24.289062 114.777344 23.671875 L 114.390625 31.125 C 114.390625 31.238281 114.4375 31.445312 114.59375 31.652344 C 114.871094 31.949219 115.417969 31.949219 115.417969 31.949219 L 118.773438 31.949219 L 119.523438 17.496094 L 119.980469 8.761719 C 120.003906 8.738281 120.050781 8.398438 119.800781 8.121094 Z M 115.027344 19.464844 C 114.253906 19.921875 113.523438 20.289062 112.816406 20.5625 C 112.109375 20.835938 111.492188 20.972656 110.945312 20.972656 C 110.328125 20.972656 109.804688 20.789062 109.414062 20.402344 C 109.027344 20.011719 108.84375 19.351562 108.890625 18.367188 L 109.09375 14.320312 C 109.140625 13.382812 109.390625 12.71875 109.847656 12.308594 C 110.304688 11.894531 110.828125 11.691406 111.421875 11.691406 C 111.675781 11.691406 111.972656 11.734375 112.3125 11.804688 C 112.65625 11.894531 113.019531 11.988281 113.386719 12.125 C 113.75 12.261719 114.09375 12.398438 114.4375 12.558594 C 114.777344 12.71875 115.074219 12.878906 115.347656 13.039062 Z M 115.027344 19.464844 "/>
<path style=" stroke:none;fill-rule:nonzero;fill:rgb(25.490196%,25.098039%,25.882353%);fill-opacity:1;" d="M 70.777344 7.574219 C 70.480469 7.574219 70.160156 7.597656 69.816406 7.640625 C 69.476562 7.6875 69.085938 7.800781 68.632812 7.960938 C 68.175781 8.121094 67.671875 8.375 67.101562 8.671875 C 66.53125 8.992188 65.871094 9.402344 65.117188 9.953125 C 64.75 9.21875 64.226562 8.625 63.542969 8.214844 C 62.835938 7.800781 61.96875 7.597656 60.894531 7.597656 C 60.597656 7.597656 60.300781 7.621094 59.980469 7.640625 C 59.683594 7.6875 59.34375 7.757812 58.953125 7.894531 C 58.566406 8.03125 58.15625 8.214844 57.675781 8.464844 C 57.199219 8.71875 56.671875 9.039062 56.054688 9.425781 L 55.78125 7.847656 L 51.71875 7.847656 L 50.851562 24.21875 C 50.851562 24.335938 50.875 24.5625 51.058594 24.769531 C 51.308594 25.042969 51.789062 25.066406 51.855469 25.066406 L 55.210938 25.066406 L 55.828125 13.359375 C 56.671875 12.808594 57.355469 12.421875 57.882812 12.214844 C 58.40625 12.011719 58.953125 11.894531 59.480469 11.894531 C 59.980469 11.894531 60.4375 12.078125 60.804688 12.421875 C 61.167969 12.765625 61.351562 13.425781 61.28125 14.363281 L 61.238281 15.417969 L 60.78125 24.152344 C 60.78125 24.152344 60.734375 24.496094 60.984375 24.769531 C 61.191406 25.019531 61.601562 25.066406 61.761719 25.066406 L 65.164062 25.066406 L 65.6875 15.097656 C 65.710938 14.824219 65.710938 14.546875 65.734375 14.273438 C 65.753906 14 65.753906 13.726562 65.734375 13.449219 C 66.554688 12.878906 67.238281 12.46875 67.765625 12.238281 C 68.3125 12.011719 68.835938 11.894531 69.339844 11.894531 C 69.957031 11.894531 70.433594 12.078125 70.800781 12.445312 C 71.164062 12.808594 71.324219 13.472656 71.277344 14.386719 L 70.753906 24.21875 C 70.753906 24.335938 70.777344 24.5625 70.960938 24.769531 C 71.164062 24.996094 71.550781 25.042969 71.710938 25.066406 L 75.136719 25.066406 L 75.730469 13.90625 C 75.820312 12.03125 75.5 10.5 74.726562 9.335938 C 73.972656 8.144531 72.648438 7.574219 70.777344 7.574219 Z M 70.777344 7.574219 "/>
<path style=" stroke:none;fill-rule:nonzero;fill:rgb(25.490196%,25.098039%,25.882353%);fill-opacity:1;" d="M 17.054688 4.28125 C 17.054688 4.28125 17.007812 5.765625 17.121094 6.226562 C 17.234375 6.683594 17.941406 7.824219 17.941406 7.824219 L 20.773438 12.855469 L 21.34375 2.039062 C 21.410156 0.964844 20.566406 0.0976562 19.496094 0.0742188 L 17.074219 0.0742188 Z M 17.054688 4.28125 "/>
<path style=" stroke:none;fill-rule:nonzero;fill:rgb(25.490196%,25.098039%,25.882353%);fill-opacity:1;" d="M 0.710938 24.746094 C 0.390625 24.175781 0.847656 23.488281 0.847656 23.488281 L 9.679688 8.214844 C 9.679688 8.214844 10.457031 6.957031 10.59375 6.453125 C 10.730469 5.925781 10.683594 4.28125 10.683594 4.28125 L 10.664062 0.0742188 L 1.351562 0.0742188 L 0.00390625 23.28125 C -0.0429688 23.992188 0.324219 24.632812 0.871094 24.976562 C 0.824219 24.90625 0.757812 24.835938 0.710938 24.746094 Z M 0.710938 24.746094 "/>
<path style=" stroke:none;fill-rule:evenodd;fill:rgb(25.882353%,71.764706%,44.313725%);fill-opacity:1;" d="M 7.648438 16.355469 L 4.226562 22.324219 C 4.226562 22.324219 4.042969 22.640625 4.25 23.007812 C 4.453125 23.351562 4.820312 23.351562 4.820312 23.351562 L 11.691406 23.351562 C 11.691406 23.351562 12.03125 23.351562 12.464844 23.007812 C 13.011719 22.597656 13.058594 21.980469 13.058594 21.980469 L 13.148438 19.394531 C 13.148438 19.394531 13.195312 18.753906 12.808594 18.070312 C 12.808594 18.070312 12.808594 18.070312 12.808594 18.046875 C 12.808594 18.046875 12.808594 18.046875 12.808594 18.023438 C 12.398438 17.335938 11.828125 17.0625 11.828125 17.0625 L 9.542969 15.828125 C 9.542969 15.828125 8.996094 15.554688 8.359375 15.828125 C 7.832031 16.058594 7.648438 16.355469 7.648438 16.355469 Z M 7.648438 16.355469 "/>
<path style=" stroke:none;fill-rule:evenodd;fill:rgb(37.647059%,72.54902%,80.784314%);fill-opacity:1;" d="M 20.542969 17.109375 L 20.109375 16.355469 C 20.109375 16.355469 19.953125 16.058594 19.425781 15.851562 C 18.789062 15.578125 18.238281 15.851562 18.238281 15.851562 L 15.957031 17.085938 C 15.957031 17.085938 15.386719 17.359375 14.976562 18.046875 C 14.976562 18.046875 14.976562 18.046875 14.976562 18.070312 C 14.976562 18.070312 14.976562 18.070312 14.976562 18.09375 C 14.589844 18.777344 14.632812 19.417969 14.632812 19.417969 L 14.726562 22.003906 C 14.726562 22.003906 14.769531 22.621094 15.320312 23.03125 C 15.753906 23.375 16.09375 23.375 16.09375 23.375 L 20.246094 23.375 Z M 20.542969 17.109375 "/>
</g>
</svg>
